<mxfile host="Electron" agent="Mozilla/5.0 (Windows NT 10.0; Win64; x64) AppleWebKit/537.36 (KHTML, like Gecko) draw.io/26.2.15 Chrome/134.0.6998.205 Electron/35.2.1 Safari/537.36" version="26.2.15">
  <diagram name="Wazuh System Architecture" id="GqIgp-yXIEBMqQhjBUKs">
    <mxGraphModel dx="1042" dy="634" grid="1" gridSize="10" guides="1" tooltips="1" connect="1" arrows="1" fold="1" page="1" pageScale="1" pageWidth="850" pageHeight="1100" math="0" shadow="0">
      <root>
        <mxCell id="0" />
        <mxCell id="1" parent="0" />
        <mxCell id="yhadi-ImTybpv4RtCKZn-6" style="endArrow=block;strokeColor=#1A1A1A;strokeWidth=2;" parent="1" edge="1">
          <mxGeometry relative="1" as="geometry">
            <mxPoint x="220" y="300" as="sourcePoint" />
            <mxPoint x="352.15474530775305" y="210" as="targetPoint" />
          </mxGeometry>
        </mxCell>
        <mxCell id="yhadi-ImTybpv4RtCKZn-7" style="endArrow=block;strokeColor=#1A1A1A;strokeWidth=2;" parent="1" edge="1">
          <mxGeometry relative="1" as="geometry">
            <mxPoint x="354.65714285714284" y="300" as="sourcePoint" />
            <mxPoint x="398.6285714285714" y="210" as="targetPoint" />
          </mxGeometry>
        </mxCell>
        <mxCell id="yhadi-ImTybpv4RtCKZn-8" style="endArrow=block;strokeColor=#1A1A1A;strokeWidth=2;" parent="1" edge="1">
          <mxGeometry relative="1" as="geometry">
            <mxPoint x="503.79999999999995" y="300" as="sourcePoint" />
            <mxPoint x="455.20000000000005" y="210" as="targetPoint" />
          </mxGeometry>
        </mxCell>
        <mxCell id="yhadi-ImTybpv4RtCKZn-9" style="endArrow=block;strokeColor=#1A1A1A;strokeWidth=2;exitX=0.122;exitY=-0.045;exitDx=0;exitDy=0;exitPerimeter=0;" parent="1" edge="1">
          <mxGeometry relative="1" as="geometry">
            <mxPoint x="627.6128000000001" y="304.79200000000003" as="sourcePoint" />
            <mxPoint x="499.71093249305704" y="210" as="targetPoint" />
          </mxGeometry>
        </mxCell>
        <mxCell id="H575st0t-o5zTrzhqhew-6" value="&lt;span&gt;&lt;span&gt;Agent&lt;/span&gt;&lt;/span&gt;" style="text;html=1;align=center;verticalAlign=middle;whiteSpace=wrap;rounded=0;strokeWidth=1;fontSize=14;fontStyle=2" parent="1" vertex="1">
          <mxGeometry x="170" y="380" width="60" height="30" as="geometry" />
        </mxCell>
        <mxCell id="H575st0t-o5zTrzhqhew-7" value="&lt;font&gt;&lt;span&gt;Agent&lt;/span&gt;&lt;/font&gt;" style="text;html=1;align=center;verticalAlign=middle;whiteSpace=wrap;rounded=0;strokeWidth=1;fontSize=14;fontStyle=2" parent="1" vertex="1">
          <mxGeometry x="622.4" y="380" width="60" height="30" as="geometry" />
        </mxCell>
        <mxCell id="H575st0t-o5zTrzhqhew-8" value="&lt;font&gt;&lt;span&gt;Agent&lt;/span&gt;&lt;/font&gt;" style="text;html=1;align=center;verticalAlign=middle;whiteSpace=wrap;rounded=0;strokeWidth=1;fontSize=14;fontStyle=2" parent="1" vertex="1">
          <mxGeometry x="470" y="380" width="60" height="30" as="geometry" />
        </mxCell>
        <mxCell id="H575st0t-o5zTrzhqhew-9" value="&lt;font&gt;&lt;span&gt;Agent&amp;nbsp;&lt;/span&gt;&lt;/font&gt;" style="text;html=1;align=center;verticalAlign=middle;whiteSpace=wrap;rounded=0;strokeWidth=1;fontSize=14;fontStyle=2" parent="1" vertex="1">
          <mxGeometry x="312.4" y="380" width="60" height="30" as="geometry" />
        </mxCell>
        <mxCell id="H575st0t-o5zTrzhqhew-10" value="&lt;font style=&quot;font-size: 16px;&quot;&gt;&lt;b&gt;FIREWALL Server&lt;/b&gt;&lt;/font&gt;" style="text;html=1;align=center;verticalAlign=middle;whiteSpace=wrap;rounded=0;strokeWidth=1;fontStyle=0;fontFamily=Verdana;" parent="1" vertex="1">
          <mxGeometry x="338.94" y="145" width="60" height="30" as="geometry" />
        </mxCell>
        <mxCell id="HeXhi7sMGGQsJsawoZON-1" value="&lt;span&gt;&lt;span&gt;&lt;font face=&quot;Verdana&quot;&gt;( Ubuntu )&lt;/font&gt;&lt;/span&gt;&lt;/span&gt;" style="text;html=1;align=center;verticalAlign=middle;whiteSpace=wrap;rounded=0;strokeWidth=1;fontSize=14;fontStyle=3" parent="1" vertex="1">
          <mxGeometry x="372.4" y="175" width="91.06" height="40" as="geometry" />
        </mxCell>
        <mxCell id="YnQOjMw-iiOPbB5TPjkV-6" value="" style="image;aspect=fixed;html=1;points=[];align=center;fontSize=12;image=img/lib/azure2/networking/Azure_Firewall_Manager.svg;" parent="1" vertex="1">
          <mxGeometry x="367" y="40" width="116.67" height="100" as="geometry" />
        </mxCell>
        <mxCell id="ZuHN-9sH_e9BctllWpX3-1" value="&lt;font style=&quot;font-size: 16px;&quot;&gt;&lt;b&gt;WAZUH&lt;/b&gt;&lt;/font&gt;&lt;div&gt;&lt;span style=&quot;font-size: 16px;&quot;&gt;&lt;b&gt;Server&lt;/b&gt;&lt;/span&gt;&lt;/div&gt;" style="text;html=1;align=center;verticalAlign=middle;whiteSpace=wrap;rounded=0;strokeWidth=1;fontStyle=0;fontFamily=Verdana;" parent="1" vertex="1">
          <mxGeometry x="440.00000000000006" y="145" width="60" height="30" as="geometry" />
        </mxCell>
        <mxCell id="ZuHN-9sH_e9BctllWpX3-2" value="&lt;font style=&quot;font-size: 20px;&quot;&gt;+&lt;/font&gt;" style="text;html=1;align=center;verticalAlign=middle;whiteSpace=wrap;rounded=0;fontStyle=0;fontFamily=Verdana;" parent="1" vertex="1">
          <mxGeometry x="393.94" y="145" width="60" height="30" as="geometry" />
        </mxCell>
        <mxCell id="ZuHN-9sH_e9BctllWpX3-4" value="&lt;span&gt;&lt;span&gt;( Windows&lt;/span&gt;&lt;/span&gt;&lt;span style=&quot;background-color: initial;&quot;&gt;&lt;span&gt;&amp;nbsp;)&lt;/span&gt;&lt;/span&gt;" style="text;html=1;align=center;verticalAlign=middle;whiteSpace=wrap;rounded=0;strokeWidth=1;fontFamily=Verdana;fontSize=14;fontStyle=3" parent="1" vertex="1">
          <mxGeometry x="449.05" y="400" width="101.9" height="40" as="geometry" />
        </mxCell>
        <mxCell id="ZuHN-9sH_e9BctllWpX3-5" value="&lt;span&gt;&lt;span&gt;( Windows&lt;/span&gt;&lt;/span&gt;&lt;span style=&quot;background-color: initial;&quot;&gt;&lt;span&gt;&amp;nbsp;)&lt;/span&gt;&lt;/span&gt;" style="text;html=1;align=center;verticalAlign=middle;whiteSpace=wrap;rounded=0;strokeWidth=1;fontFamily=Verdana;fontSize=14;fontStyle=3" parent="1" vertex="1">
          <mxGeometry x="292.65" y="400" width="99.5" height="40" as="geometry" />
        </mxCell>
        <mxCell id="Yc3ho5O6fSTAZcQfKMUf-1" value="" style="image;points=[];aspect=fixed;html=1;align=center;shadow=0;dashed=0;image=img/lib/allied_telesis/computer_and_terminals/Personal_Computer.svg;" vertex="1" parent="1">
          <mxGeometry x="174.17" y="310" width="51.65" height="70" as="geometry" />
        </mxCell>
        <mxCell id="Yc3ho5O6fSTAZcQfKMUf-2" value="" style="image;points=[];aspect=fixed;html=1;align=center;shadow=0;dashed=0;image=img/lib/allied_telesis/computer_and_terminals/Personal_Computer.svg;" vertex="1" parent="1">
          <mxGeometry x="626.58" y="310" width="51.65" height="70" as="geometry" />
        </mxCell>
        <mxCell id="Yc3ho5O6fSTAZcQfKMUf-3" value="" style="image;points=[];aspect=fixed;html=1;align=center;shadow=0;dashed=0;image=img/lib/allied_telesis/computer_and_terminals/Personal_Computer.svg;" vertex="1" parent="1">
          <mxGeometry x="474.16999999999996" y="310" width="51.65" height="70" as="geometry" />
        </mxCell>
        <mxCell id="Yc3ho5O6fSTAZcQfKMUf-4" value="" style="image;points=[];aspect=fixed;html=1;align=center;shadow=0;dashed=0;image=img/lib/allied_telesis/computer_and_terminals/Personal_Computer.svg;" vertex="1" parent="1">
          <mxGeometry x="320.75" y="310" width="51.65" height="70" as="geometry" />
        </mxCell>
        <mxCell id="Yc3ho5O6fSTAZcQfKMUf-7" value="&lt;span&gt;&lt;span&gt;( Windows&lt;/span&gt;&lt;/span&gt;&lt;span style=&quot;background-color: initial;&quot;&gt;&lt;span&gt;&amp;nbsp;)&lt;/span&gt;&lt;/span&gt;" style="text;html=1;align=center;verticalAlign=middle;whiteSpace=wrap;rounded=0;strokeWidth=1;fontFamily=Verdana;fontSize=14;fontStyle=3" vertex="1" parent="1">
          <mxGeometry x="602.65" y="400" width="99.5" height="40" as="geometry" />
        </mxCell>
        <mxCell id="Yc3ho5O6fSTAZcQfKMUf-8" value="&lt;span&gt;&lt;span&gt;( Windows&lt;/span&gt;&lt;/span&gt;&lt;span style=&quot;background-color: initial;&quot;&gt;&lt;span&gt;&amp;nbsp;)&lt;/span&gt;&lt;/span&gt;" style="text;html=1;align=center;verticalAlign=middle;whiteSpace=wrap;rounded=0;strokeWidth=1;fontFamily=Verdana;fontSize=14;fontStyle=3" vertex="1" parent="1">
          <mxGeometry x="150.25" y="400" width="99.5" height="40" as="geometry" />
        </mxCell>
      </root>
    </mxGraphModel>
  </diagram>
</mxfile>
